<svg width="980" height="280" viewBox="0 0 980 280" fill="none" xmlns="http://www.w3.org/2000/svg" role="img" aria-labelledby="title desc">
  <title id="title">Eon logo</title>
  <desc id="desc">A restrained geometric mark for the Eon Rust destiny analysis workspace.</desc>
  <rect width="980" height="280" rx="28" fill="#101418"/>
  <rect x="1" y="1" width="978" height="278" rx="27" stroke="#2B3238" stroke-width="2"/>
  <g transform="translate(92 48)">
    <circle cx="92" cy="92" r="88" stroke="#D8CFA8" stroke-width="8"/>
    <circle cx="92" cy="92" r="54" stroke="#5FA8A0" stroke-width="6"/>
    <path d="M92 4 A88 88 0 0 1 180 92" stroke="#B56D4F" stroke-width="8" stroke-linecap="round"/>
    <path d="M92 180 A88 88 0 0 1 4 92" stroke="#7895C8" stroke-width="8" stroke-linecap="round"/>
    <path d="M92 38 L108 78 L151 80 L117 106 L128 148 L92 124 L56 148 L67 106 L33 80 L76 78 Z" fill="#D8CFA8"/>
    <path d="M92 38 L108 78 L151 80 L117 106 L128 148 L92 124 Z" fill="#5FA8A0" fill-opacity="0.65"/>
    <circle cx="92" cy="92" r="9" fill="#101418" stroke="#D8CFA8" stroke-width="4"/>
  </g>
  <g transform="translate(270 66)">
    <text x="0" y="74" fill="#F3F0E7" font-family="Inter, ui-sans-serif, system-ui, -apple-system, BlinkMacSystemFont, Segoe UI, sans-serif" font-size="72" font-weight="700" letter-spacing="0">Eon</text>
    <text x="2" y="118" fill="#B8C2C6" font-family="Inter, ui-sans-serif, system-ui, -apple-system, BlinkMacSystemFont, Segoe UI, sans-serif" font-size="24" font-weight="500" letter-spacing="0">Rust destiny analysis workspace</text>
    <line x1="2" y1="146" x2="560" y2="146" stroke="#2B3238" stroke-width="2"/>
    <text x="2" y="184" fill="#D8CFA8" font-family="JetBrains Mono, SFMono-Regular, Consolas, monospace" font-size="22" font-weight="500" letter-spacing="0">Saju · Vedic · ZWDS · Western · Human Design · Qimen</text>
  </g>
</svg>
